<?xml version="1.0" encoding="iso-8859-1"?>
<!-- Generator: Adobe Illustrator 18.0.0, SVG Export Plug-In . SVG Version: 6.00 Build 0)  -->
<!DOCTYPE svg PUBLIC "-//W3C//DTD SVG 1.1//EN" "http://www.w3.org/Graphics/SVG/1.1/DTD/svg11.dtd">
<svg xmlns="http://www.w3.org/2000/svg" xmlns:xlink="http://www.w3.org/1999/xlink" version="1.1" id="Capa_1" x="0px" y="0px" viewBox="0 0 297 297" style="enable-background:new 0 0 297 297;" xml:space="preserve" width="512px" height="512px">
<g>
	<path d="M89.196,258.829h-9.717c-5.775,0-10.458,4.682-10.458,10.458c0,5.775,4.682,10.458,10.458,10.458h138.042   c5.775,0,10.458-4.682,10.458-10.458c0-5.775-4.682-10.458-10.458-10.458h-9.718l-3.364-10.092   c-1.217-3.652-5.364-6.641-9.214-6.641h-93.453c-3.85,0-7.996,2.988-9.214,6.641L89.196,258.829z" fill="#302d21"/>
	<path d="M190.2,88.499h-13.987v68.237H190.2c18.813,0,34.118-15.306,34.118-34.118S209.013,88.499,190.2,88.499z" fill="#302d21"/>
	<path d="M286.542,227.979c5.775,0,10.458-4.682,10.458-10.458V27.713c0-5.775-4.682-10.458-10.458-10.458H10.458   C4.682,17.255,0,21.938,0,27.713v189.808c0,5.775,4.682,10.458,10.458,10.458H286.542z M138.827,167.193   c0,5.775-4.682,10.458-10.458,10.458c-5.775,0-10.458-4.682-10.458-10.458v-34.118h-45.23v34.118   c0,5.775-4.682,10.458-10.458,10.458s-10.458-4.682-10.458-10.458V78.041c0-5.775,4.682-10.458,10.458-10.458   s10.458,4.683,10.458,10.458v34.118h45.23V78.041c0-5.775,4.682-10.458,10.458-10.458c5.775,0,10.458,4.683,10.458,10.458V167.193z    M190.2,177.651h-24.445c-5.775,0-10.458-4.682-10.458-10.458V78.041c0-5.775,4.682-10.458,10.458-10.458H190.2   c30.346,0,55.034,24.688,55.034,55.034S220.546,177.651,190.2,177.651z" fill="#302d21"/>
</g>
<g>
</g>
<g>
</g>
<g>
</g>
<g>
</g>
<g>
</g>
<g>
</g>
<g>
</g>
<g>
</g>
<g>
</g>
<g>
</g>
<g>
</g>
<g>
</g>
<g>
</g>
<g>
</g>
<g>
</g>
</svg>
